<svg width="500" height="500" xmlns="http://www.w3.org/2000/svg" version="1.1"><g transform="translate(250, 250)"><g display="none"><path d="M1.0824450702943666e-14,-176.7766952966369A176.7766952966369,176.7766952966369,0,1,1,-1.0824450702943666e-14,176.7766952966369A176.7766952966369,176.7766952966369,0,1,1,1.0824450702943666e-14,-176.7766952966369Z" style="stroke: rgb(255, 255, 255); fill: rgb(191, 105, 105); fill-rule: evenodd;"></path><text transform="translate(5.412225351471833e-15,88.38834764831844)rotate(90)" text-anchor="middle" dx="6" dy=".35em" style="font-size: 11px; font-family: Arial, Helvetica;"></text><title>undefined: none</title></g><g><path d="M1.5308084989341916e-14,-250A250,250,0,0,1,158.2531134522176,-193.5354026597706L111.90184966594711,-136.85019562039278A176.7766952966369,176.7766952966369,0,0,0,1.0824450702943666e-14,-176.7766952966369Z" style="stroke: rgb(255, 255, 255); fill: rgb(191, 105, 105); fill-rule: evenodd;"></path><text transform="translate(71.70902474646066,-200.97861249892017)rotate(-70.36363636363637)" text-anchor="middle" dx="6" dy=".35em" style="font-size: 11px; font-family: Arial, Helvetica;">Course</text><title>Course: 12</title></g><g><path d="M158.2531134522176,-193.5354026597706A250,250,0,0,1,227.40799883862962,-103.8537532504716L160.80173807485752,-73.43569317508292A176.7766952966369,176.7766952966369,0,0,0,111.90184966594711,-136.85019562039278Z" style="stroke: rgb(255, 255, 255); fill: rgb(191, 179, 105); fill-rule: evenodd;"></path><text transform="translate(168.98271175634662,-130.30514203035537)rotate(-37.63636363636364)" text-anchor="middle" dx="6" dy=".35em" style="font-size: 11px; font-family: Arial, Helvetica;">Energie</text><title>Energie: 8</title></g><g><path d="M227.40799883862962,-103.8537532504716A250,250,0,0,1,188.93739358856456,163.71518348632128L133.59891222618575,115.76411642637765A176.7766952966369,176.7766952966369,0,0,0,160.80173807485752,-73.43569317508292Z" style="stroke: rgb(255, 255, 255); fill: rgb(130, 191, 105); fill-rule: evenodd;"></path><text transform="translate(211.2163619498483,30.36832818497397)rotate(8.181818181818176)" text-anchor="middle" dx="6" dy=".35em" style="font-size: 11px; font-family: Arial, Helvetica;">Epargne</text><title>Epargne: 20</title></g><g><path d="M188.93739358856456,163.71518348632128A250,250,0,0,1,-247.45536047023316,35.578709568321294L-174.97736342946342,25.15794680162669A176.7766952966369,176.7766952966369,0,0,0,133.59891222618575,115.76411642637765Z" style="stroke: rgb(255, 255, 255); fill: rgb(105, 191, 154); fill-rule: evenodd;"></path><text transform="translate(-60.11844478312858,204.74462021976922)rotate(286.3636363636364)" text-anchor="middle" dx="6" dy=".35em" style="font-size: 11px; font-family: Arial, Helvetica;">Loyer</text><title>Loyer: 40</title></g><g><path d="M-247.45536047023316,35.578709568321294A250,250,0,0,1,-188.9373935885645,-163.71518348632134L-133.5989122261857,-115.7641164263777A176.7766952966369,176.7766952966369,0,0,0,-174.97736342946342,25.15794680162669Z" style="stroke: rgb(255, 255, 255); fill: rgb(105, 154, 191); fill-rule: evenodd;"></path><text transform="translate(-204.74462021976922,-60.118444783128574)rotate(376.3636363636364)" text-anchor="middle" dx="6" dy=".35em" style="font-size: 11px; font-family: Arial, Helvetica;">Shopping</text><title>Shopping: 15</title></g><g><path d="M-188.9373935885645,-163.71518348632134A250,250,0,0,1,-70.43313921035744,-239.87324340362434L-49.80375035589986,-169.61599703591406A176.7766952966369,176.7766952966369,0,0,0,-133.5989122261857,-115.7641164263777Z" style="stroke: rgb(255, 255, 255); fill: rgb(130, 105, 191); fill-rule: evenodd;"></path><text transform="translate(-115.36645070808609,-179.5137013241562)rotate(417.2727272727273)" text-anchor="middle" dx="6" dy=".35em" style="font-size: 11px; font-family: Arial, Helvetica;">Sortie</text><title>Sortie: 10</title></g><g><path d="M-70.43313921035744,-239.87324340362434A250,250,0,0,1,-4.5924254968025744e-14,-250L-3.2473352108831e-14,-176.7766952966369A176.7766952966369,176.7766952966369,0,0,0,-49.80375035589986,-169.61599703591406Z" style="stroke: rgb(255, 255, 255); fill: rgb(191, 105, 179); fill-rule: evenodd;"></path><text transform="translate(-30.368328184974004,-211.2163619498483)rotate(441.8181818181818)" text-anchor="middle" dx="6" dy=".35em" style="font-size: 11px; font-family: Arial, Helvetica;">Transport</text><title>Transport: 5</title></g></g></svg>