<?xml version="1.0" encoding="utf-8"?>
<!-- Generator: Adobe Illustrator 16.0.0, SVG Export Plug-In . SVG Version: 6.00 Build 0)  -->
<!DOCTYPE svg PUBLIC "-//W3C//DTD SVG 1.1//EN" "http://www.w3.org/Graphics/SVG/1.1/DTD/svg11.dtd">
<svg version="1.1" id="Layer_1" xmlns="http://www.w3.org/2000/svg" xmlns:xlink="http://www.w3.org/1999/xlink" x="0px" y="0px"
	 width="932.878px" height="227px" viewBox="0 0 932.878 227" enable-background="new 0 0 932.878 227" xml:space="preserve">
<rect x="-0.484" y="-1" fill="#2D2D2D" width="933.833" height="228.181"/>
<rect x="547.621" y="22.209" opacity="0.1" fill="#F4F4F4" width="182.084" height="182.083"/>
<g>
	<g>
		<polyline fill="none" stroke="#F4F4F4" stroke-miterlimit="10" points="729.955,198.542 729.955,204.542 723.955,204.542 		"/>
		
			<line fill="none" stroke="#F4F4F4" stroke-miterlimit="10" stroke-dasharray="12.4817,10.4014" x1="713.553" y1="204.542" x2="558.572" y2="204.542"/>
		<polyline fill="none" stroke="#F4F4F4" stroke-miterlimit="10" points="553.371,204.542 547.371,204.542 547.371,198.542 		"/>
		
			<line fill="none" stroke="#F4F4F4" stroke-miterlimit="10" stroke-dasharray="12.4817,10.4014" x1="547.371" y1="188.141" x2="547.371" y2="33.16"/>
		<polyline fill="none" stroke="#F4F4F4" stroke-miterlimit="10" points="547.371,27.959 547.371,21.959 553.371,21.959 		"/>
		
			<line fill="none" stroke="#F4F4F4" stroke-miterlimit="10" stroke-dasharray="12.4817,10.4014" x1="563.773" y1="21.959" x2="718.753" y2="21.959"/>
		<polyline fill="none" stroke="#F4F4F4" stroke-miterlimit="10" points="723.955,21.959 729.955,21.959 729.955,27.959 		"/>
		
			<line fill="none" stroke="#F4F4F4" stroke-miterlimit="10" stroke-dasharray="12.4817,10.4014" x1="729.955" y1="38.36" x2="729.955" y2="193.342"/>
	</g>
</g>
<rect x="593.017" y="67.605" opacity="0.7" fill="#F3F4F4" stroke="#F4F4F4" stroke-miterlimit="10" width="91.291" height="91.292"/>
<line fill="none" stroke="#F4F4F4" stroke-miterlimit="10" stroke-dasharray="12" x1="547.371" y1="21.959" x2="593.017" y2="67.605"/>
<line fill="none" stroke="#F4F4F4" stroke-miterlimit="10" stroke-dasharray="12" x1="729.955" y1="21.959" x2="684.308" y2="67.605"/>
<line fill="none" stroke="#F4F4F4" stroke-miterlimit="10" stroke-dasharray="12" x1="684.308" y1="158.896" x2="729.955" y2="204.542"/>
<line fill="none" stroke="#F4F4F4" stroke-miterlimit="10" stroke-dasharray="12" x1="593.017" y1="158.896" x2="547.371" y2="204.542"/>
<rect x="201.621" y="22.209" opacity="0.1" fill="#F4F4F4" width="182.084" height="182.083"/>
<g>
	<g>
		<polyline fill="none" stroke="#F4F4F4" stroke-miterlimit="10" points="383.955,198.542 383.955,204.542 377.955,204.542 		"/>
		
			<line fill="none" stroke="#F4F4F4" stroke-miterlimit="10" stroke-dasharray="12.4817,10.4014" x1="367.553" y1="204.542" x2="212.572" y2="204.542"/>
		<polyline fill="none" stroke="#F4F4F4" stroke-miterlimit="10" points="207.371,204.542 201.371,204.542 201.371,198.542 		"/>
		
			<line fill="none" stroke="#F4F4F4" stroke-miterlimit="10" stroke-dasharray="12.4817,10.4014" x1="201.371" y1="188.141" x2="201.371" y2="33.16"/>
		<polyline fill="none" stroke="#F4F4F4" stroke-miterlimit="10" points="201.371,27.959 201.371,21.959 207.371,21.959 		"/>
		
			<line fill="none" stroke="#F4F4F4" stroke-miterlimit="10" stroke-dasharray="12.4817,10.4014" x1="217.773" y1="21.959" x2="372.753" y2="21.959"/>
		<polyline fill="none" stroke="#F4F4F4" stroke-miterlimit="10" points="377.955,21.959 383.955,21.959 383.955,27.959 		"/>
		
			<line fill="none" stroke="#F4F4F4" stroke-miterlimit="10" stroke-dasharray="12.4817,10.4014" x1="383.955" y1="38.36" x2="383.955" y2="193.342"/>
	</g>
</g>
<rect x="201.517" y="67.605" opacity="0.7" fill="#F3F4F4" stroke="#F4F4F4" stroke-miterlimit="10" width="182.291" height="91.292"/>
<line fill="none" stroke="#F4F4F4" stroke-miterlimit="10" stroke-dasharray="12" x1="200.917" y1="66.784" x2="383.661" y2="66.784"/>
<line fill="none" stroke="#F4F4F4" stroke-miterlimit="10" stroke-dasharray="12" x1="383.658" y1="159.219" x2="201.416" y2="159.218"/>
</svg>
