<?xml version="1.0" encoding="utf-8"?>
<!-- Generator: Adobe Illustrator 16.0.0, SVG Export Plug-In . SVG Version: 6.00 Build 0)  -->
<!DOCTYPE svg PUBLIC "-//W3C//DTD SVG 1.1//EN" "http://www.w3.org/Graphics/SVG/1.1/DTD/svg11.dtd">
<svg version="1.1" id="Layer_1" xmlns="http://www.w3.org/2000/svg" xmlns:xlink="http://www.w3.org/1999/xlink" x="0px" y="0px"
	 width="609px" height="227px" viewBox="0 0 609 227" enable-background="new 0 0 609 227" xml:space="preserve">
<rect y="-1" fill="#2D2D2D" width="609.471" height="228.181"/>
<rect x="350.742" y="22.209" opacity="0.1" fill="#F4F4F4" width="182.084" height="182.083"/>
<g>
	<g>
		<polyline fill="none" stroke="#F4F4F4" stroke-miterlimit="10" points="533.076,198.542 533.076,204.542 527.076,204.542 		"/>
		
			<line fill="none" stroke="#F4F4F4" stroke-miterlimit="10" stroke-dasharray="12.4817,10.4014" x1="516.675" y1="204.542" x2="361.693" y2="204.542"/>
		<polyline fill="none" stroke="#F4F4F4" stroke-miterlimit="10" points="356.492,204.542 350.492,204.542 350.492,198.542 		"/>
		
			<line fill="none" stroke="#F4F4F4" stroke-miterlimit="10" stroke-dasharray="12.4817,10.4014" x1="350.492" y1="188.141" x2="350.492" y2="33.16"/>
		<polyline fill="none" stroke="#F4F4F4" stroke-miterlimit="10" points="350.492,27.959 350.492,21.959 356.492,21.959 		"/>
		
			<line fill="none" stroke="#F4F4F4" stroke-miterlimit="10" stroke-dasharray="12.4817,10.4014" x1="366.895" y1="21.959" x2="521.875" y2="21.959"/>
		<polyline fill="none" stroke="#F4F4F4" stroke-miterlimit="10" points="527.076,21.959 533.076,21.959 533.076,27.959 		"/>
		
			<line fill="none" stroke="#F4F4F4" stroke-miterlimit="10" stroke-dasharray="12.4817,10.4014" x1="533.076" y1="38.36" x2="533.076" y2="193.342"/>
	</g>
</g>
<rect x="396.139" y="67.605" opacity="0.7" fill="#F3F4F4" stroke="#F4F4F4" stroke-miterlimit="10" width="91.291" height="91.292"/>
<line fill="none" stroke="#F4F4F4" stroke-miterlimit="10" stroke-dasharray="12" x1="350.492" y1="21.959" x2="396.139" y2="67.605"/>
<line fill="none" stroke="#F4F4F4" stroke-miterlimit="10" stroke-dasharray="12" x1="533.076" y1="21.959" x2="487.43" y2="67.605"/>
<line fill="none" stroke="#F4F4F4" stroke-miterlimit="10" stroke-dasharray="12" x1="487.43" y1="158.896" x2="533.076" y2="204.542"/>
<line fill="none" stroke="#F4F4F4" stroke-miterlimit="10" stroke-dasharray="12" x1="396.139" y1="158.896" x2="350.492" y2="204.542"/>
<rect x="78.742" y="22.209" opacity="0.1" fill="#F4F4F4" width="182.084" height="182.083"/>
<g>
	<g>
		<polyline fill="none" stroke="#F4F4F4" stroke-miterlimit="10" points="261.076,198.542 261.076,204.542 255.076,204.542 		"/>
		
			<line fill="none" stroke="#F4F4F4" stroke-miterlimit="10" stroke-dasharray="12.4817,10.4014" x1="244.675" y1="204.542" x2="89.693" y2="204.542"/>
		<polyline fill="none" stroke="#F4F4F4" stroke-miterlimit="10" points="84.492,204.542 78.492,204.542 78.492,198.542 		"/>
		
			<line fill="none" stroke="#F4F4F4" stroke-miterlimit="10" stroke-dasharray="12.4817,10.4014" x1="78.492" y1="188.141" x2="78.492" y2="33.16"/>
		<polyline fill="none" stroke="#F4F4F4" stroke-miterlimit="10" points="78.492,27.959 78.492,21.959 84.492,21.959 		"/>
		
			<line fill="none" stroke="#F4F4F4" stroke-miterlimit="10" stroke-dasharray="12.4817,10.4014" x1="94.895" y1="21.959" x2="249.875" y2="21.959"/>
		<polyline fill="none" stroke="#F4F4F4" stroke-miterlimit="10" points="255.076,21.959 261.076,21.959 261.076,27.959 		"/>
		
			<line fill="none" stroke="#F4F4F4" stroke-miterlimit="10" stroke-dasharray="12.4817,10.4014" x1="261.076" y1="38.36" x2="261.076" y2="193.342"/>
	</g>
</g>
<rect x="78.639" y="67.605" opacity="0.7" fill="#F3F4F4" stroke="#F4F4F4" stroke-miterlimit="10" width="182.291" height="91.292"/>
<line fill="none" stroke="#F4F4F4" stroke-miterlimit="10" stroke-dasharray="12" x1="78.039" y1="66.784" x2="260.782" y2="66.784"/>
<line fill="none" stroke="#F4F4F4" stroke-miterlimit="10" stroke-dasharray="12" x1="260.779" y1="159.219" x2="78.538" y2="159.218"/>
</svg>
