<?xml version="1.0" encoding="utf-8"?>
<!-- Generator: Adobe Illustrator 16.0.0, SVG Export Plug-In . SVG Version: 6.00 Build 0)  -->
<!DOCTYPE svg PUBLIC "-//W3C//DTD SVG 1.1//EN" "http://www.w3.org/Graphics/SVG/1.1/DTD/svg11.dtd">
<svg version="1.1" id="Layer_1" xmlns="http://www.w3.org/2000/svg" xmlns:xlink="http://www.w3.org/1999/xlink" x="0px" y="0px"
	 width="932.878px" height="227px" viewBox="0 0 932.878 227" enable-background="new 0 0 932.878 227" xml:space="preserve">
<rect y="-0.182" fill="#2D2D2D" width="933.833" height="226.932"/>
<rect x="387.485" y="26.132" opacity="0.1" fill="#F4F4F4" enable-background="new    " width="142.349" height="142.524"/>
<g>
	<g>
		<polyline fill="none" stroke="#F4F4F4" stroke-miterlimit="10" points="529.658,164.32 529.658,169.015 524.968,169.015 		"/>
		
			<line fill="none" stroke="#F4F4F4" stroke-miterlimit="10" stroke-dasharray="12.4817,10.4014" x1="516.838" y1="169.015" x2="395.706" y2="169.015"/>
		<polyline fill="none" stroke="#F4F4F4" stroke-miterlimit="10" points="391.641,169.015 386.952,169.015 386.952,164.32 		"/>
		
			<line fill="none" stroke="#F4F4F4" stroke-miterlimit="10" stroke-dasharray="12.4817,10.4014" x1="386.952" y1="156.181" x2="386.952" y2="34.898"/>
		<polyline fill="none" stroke="#F4F4F4" stroke-miterlimit="10" points="386.952,30.828 386.952,26.132 391.641,26.132 		"/>
		
			<line fill="none" stroke="#F4F4F4" stroke-miterlimit="10" stroke-dasharray="12.4817,10.4014" x1="399.771" y1="26.132" x2="520.903" y2="26.132"/>
		<polyline fill="none" stroke="#F4F4F4" stroke-miterlimit="10" points="524.968,26.132 529.658,26.132 529.658,30.828 		"/>
		
			<line fill="none" stroke="#F4F4F4" stroke-miterlimit="10" stroke-dasharray="12.4817,10.4014" x1="529.658" y1="38.967" x2="529.658" y2="160.251"/>
	</g>
</g>
<g>
	<path fill="#F4F4F4" d="M381.171,16.448c0,3.032-1.125,4.705-3.1,4.705c-1.742,0-2.922-1.632-2.95-4.582
		c0-2.991,1.29-4.637,3.101-4.637C380.101,11.935,381.171,13.608,381.171,16.448z M376.329,16.585c0,2.318,0.713,3.635,1.811,3.635
		c1.234,0,1.824-1.44,1.824-3.718c0-2.195-0.562-3.635-1.811-3.635C377.097,12.867,376.329,14.157,376.329,16.585z"/>
</g>
<g>
	<path fill="#F4F4F4" d="M538.548,12.624h-3.402l-0.343,2.291c0.206-0.028,0.397-0.055,0.728-0.055c0.686,0,1.371,0.151,1.92,0.48
		c0.699,0.397,1.275,1.166,1.275,2.291c0,1.742-1.385,3.045-3.319,3.045c-0.974,0-1.797-0.274-2.222-0.549l0.301-0.919
		c0.371,0.22,1.098,0.494,1.907,0.494c1.139,0,2.112-0.741,2.112-1.934c-0.014-1.152-0.781-1.975-2.564-1.975
		c-0.508,0-0.906,0.055-1.235,0.096l0.576-4.28h4.267V12.624z"/>
	<path fill="#F4F4F4" d="M546.189,15.971c0,3.032-1.125,4.705-3.101,4.705c-1.742,0-2.922-1.632-2.95-4.582
		c0-2.991,1.29-4.637,3.102-4.637C545.119,11.458,546.189,13.131,546.189,15.971z M541.346,16.108c0,2.318,0.713,3.635,1.811,3.635
		c1.234,0,1.824-1.44,1.824-3.718c0-2.195-0.562-3.635-1.811-3.635C542.115,12.39,541.346,13.68,541.346,16.108z"/>
	<path fill="#F4F4F4" d="M553.224,15.971c0,3.032-1.125,4.705-3.1,4.705c-1.742,0-2.922-1.632-2.949-4.582
		c0-2.991,1.289-4.637,3.1-4.637C552.154,11.458,553.224,13.131,553.224,15.971z M548.382,16.108c0,2.318,0.713,3.635,1.811,3.635
		c1.234,0,1.824-1.44,1.824-3.718c0-2.195-0.562-3.635-1.811-3.635C549.15,12.39,548.382,13.68,548.382,16.108z"/>
</g>
<g>
	<path fill="#F4F4F4" d="M366.375,174.415h-3.402l-0.343,2.291c0.206-0.027,0.398-0.055,0.727-0.055c0.686,0,1.372,0.15,1.92,0.479
		c0.7,0.398,1.276,1.166,1.276,2.291c0,1.742-1.386,3.046-3.32,3.046c-0.974,0-1.797-0.274-2.222-0.549l0.302-0.919
		c0.371,0.219,1.097,0.493,1.907,0.493c1.139,0,2.112-0.74,2.112-1.934c-0.014-1.152-0.782-1.976-2.565-1.976
		c-0.508,0-0.905,0.055-1.235,0.096l0.576-4.279h4.267V174.415z"/>
	<path fill="#F4F4F4" d="M374.015,177.762c0,3.032-1.125,4.706-3.1,4.706c-1.742,0-2.922-1.633-2.95-4.582
		c0-2.99,1.29-4.637,3.101-4.637C372.944,173.249,374.015,174.923,374.015,177.762z M369.172,177.899
		c0,2.318,0.713,3.635,1.811,3.635c1.234,0,1.824-1.44,1.824-3.717c0-2.195-0.562-3.636-1.811-3.636
		C369.94,174.182,369.172,175.472,369.172,177.899z"/>
	<path fill="#F4F4F4" d="M381.051,177.762c0,3.032-1.125,4.706-3.1,4.706c-1.742,0-2.922-1.633-2.95-4.582
		c0-2.99,1.29-4.637,3.101-4.637C379.98,173.249,381.051,174.923,381.051,177.762z M376.208,177.899
		c0,2.318,0.713,3.635,1.811,3.635c1.234,0,1.824-1.44,1.824-3.717c0-2.195-0.562-3.636-1.811-3.636
		C376.977,174.182,376.208,175.472,376.208,177.899z"/>
</g>
<line opacity="0.5" fill="none" stroke="#F4F4F4" stroke-width="2" stroke-miterlimit="10" enable-background="new    " x1="386.928" y1="26.117" x2="558.708" y2="26.117"/>
<g opacity="0.5" enable-background="new    ">
	<path fill="#F4F4F4" d="M568.671,26.598l-1.18-2.044c-0.48-0.782-0.783-1.29-1.07-1.824h-0.027
		c-0.262,0.535-0.521,1.029-1.002,1.838l-1.111,2.03h-1.371l2.826-4.678l-2.717-4.568h1.386l1.221,2.167
		c0.343,0.604,0.604,1.07,0.851,1.563h0.041c0.261-0.548,0.494-0.974,0.837-1.563l1.262-2.167h1.372l-2.812,4.5l2.881,4.746H568.671
		z"/>
</g>
<line opacity="0.5" fill="none" stroke="#F4F4F4" stroke-width="2" stroke-miterlimit="10" enable-background="new    " x1="386.973" y1="26.132" x2="386.973" y2="198.177"/>
<g opacity="0.5" enable-background="new    ">
	<path fill="#F4F4F4" d="M385.062,212.346v-3.923l-2.922-5.323h1.358l1.303,2.552c0.357,0.7,0.631,1.262,0.919,1.907h0.027
		c0.261-0.604,0.576-1.207,0.933-1.907l1.331-2.552h1.358l-3.101,5.31v3.937H385.062z"/>
</g>
</svg>
