<?xml version="1.0" encoding="utf-8"?>
<!-- Generator: Adobe Illustrator 16.0.0, SVG Export Plug-In . SVG Version: 6.00 Build 0)  -->
<!DOCTYPE svg PUBLIC "-//W3C//DTD SVG 1.1//EN" "http://www.w3.org/Graphics/SVG/1.1/DTD/svg11.dtd">
<svg version="1.1" id="Layer_1" xmlns="http://www.w3.org/2000/svg" xmlns:xlink="http://www.w3.org/1999/xlink" x="0px" y="0px"
	 width="492px" height="248px" viewBox="0 0 492 248" enable-background="new 0 0 492 248" xml:space="preserve">
<rect x="0.5" y="45.5" fill="none" stroke="#4188F3" stroke-miterlimit="10" width="35" height="202"/>
<rect x="45.5" y="0.5" fill="none" stroke="#4188F3" stroke-miterlimit="10" width="446" height="35"/>
<rect x="45.5" y="45.5" fill="none" stroke="#4188F3" stroke-miterlimit="10" width="446" height="202"/>
<g>
	<path fill="#4188F3" d="M19.181,4.993c-1.808-1.454-4.501-2.174-8.287-2.174c-3.747,0-6.398,0.243-8.289,0.561v26.768h6.079V20.44
		c0.568,0.083,1.287,0.125,2.09,0.125c3.622,0,6.725-0.887,8.808-2.859c1.612-1.531,2.506-3.773,2.506-6.432
		C22.09,8.622,20.926,6.364,19.181,4.993z M10.735,15.85c-0.887,0-1.525-0.035-2.05-0.152V7.687
		c0.443-0.125,1.287-0.243,2.534-0.243c3.06,0,4.792,1.489,4.792,3.981C16.011,14.202,13.996,15.85,10.735,15.85z"/>
	<path fill="#4188F3" d="M31.927,18.107c-2.416-0.845-3.17-1.33-3.17-2.25c0-1.011,0.837-1.614,2.32-1.614
		c1.696,0,3.386,0.645,4.271,1.129l1.086-4.23c-1.211-0.603-3.261-1.121-5.552-1.121c-4.875,0-8.011,2.776-8.011,6.438
		c-0.042,2.334,1.531,4.549,5.594,5.914c2.292,0.768,2.894,1.247,2.894,2.257c0,1.004-0.761,1.647-2.609,1.647
		c-1.814,0-4.147-0.803-5.276-1.482l-1.086,4.383c1.487,0.81,3.78,1.364,6.362,1.364c5.623,0,8.53-2.693,8.53-6.362
		C37.238,21.284,35.667,19.395,31.927,18.107z"/>
</g>
<polygon fill="#4188F3" points="14.064,68.2 14.064,54.123 23.752,63.356 18.36,63.539 "/>
<g>
	<g>
		<polyline fill="none" stroke="#4188F3" stroke-miterlimit="10" points="25.666,95.68 25.666,97.68 23.666,97.68 		"/>
		
			<line fill="none" stroke="#4188F3" stroke-miterlimit="10" stroke-dasharray="3.7164,2.7873" x1="20.878" y1="97.68" x2="15.768" y2="97.68"/>
		<polyline fill="none" stroke="#4188F3" stroke-miterlimit="10" points="14.375,97.68 12.375,97.68 12.375,95.68 		"/>
		
			<line fill="none" stroke="#4188F3" stroke-miterlimit="10" stroke-dasharray="3.2418,2.4313" x1="12.375" y1="93.249" x2="12.375" y2="88.792"/>
		<polyline fill="none" stroke="#4188F3" stroke-miterlimit="10" points="12.375,87.576 12.375,85.576 14.375,85.576 		"/>
		
			<line fill="none" stroke="#4188F3" stroke-miterlimit="10" stroke-dasharray="3.7164,2.7873" x1="17.162" y1="85.576" x2="22.272" y2="85.576"/>
		<polyline fill="none" stroke="#4188F3" stroke-miterlimit="10" points="23.666,85.576 25.666,85.576 25.666,87.576 		"/>
		
			<line fill="none" stroke="#4188F3" stroke-miterlimit="10" stroke-dasharray="3.2418,2.4313" x1="25.666" y1="90.007" x2="25.666" y2="94.464"/>
	</g>
</g>
<g>
	<line fill="none" stroke="#4188F3" x1="16.492" y1="128.346" x2="26.347" y2="118.283"/>
	<path fill="#4188F3" d="M26.533,128.24h-2.998v-6.895h-0.754v-0.009h-6.246v-3.116h-2v3.116h-2.879v1h2.879v6.904h7v3.23h2v-3.23
		h2.998V128.24z M16.535,128.24v-5.904h5v5.904H16.535z"/>
</g>
<g>
	<polyline fill="#4188F3" stroke="#4188F3" stroke-width="0.5" stroke-linejoin="round" points="24.842,150 19.316,155.459 
		21.388,157.533 28.841,150 	"/>
	<path fill="#4188F3" stroke="#4188F3" stroke-width="0.75" stroke-linecap="square" stroke-linejoin="round" d="M20.66,155.083
		c0,0-1.712-1.741-2.521,0c-0.407,0.88-2.672,5.466-8.718,7.414c6.817,0.663,10.214,0.5,12.365-2.774
		C23.399,157.265,20.66,155.083,20.66,155.083z"/>
	
		<rect x="20.668" y="154.45" transform="matrix(0.7181 0.6959 -0.6959 0.7181 114.0604 28.4494)" fill="#4188F3" stroke="#4188F3" stroke-miterlimit="10" width="2.489" height="1.137"/>
	<line fill="#4188F3" stroke="#4188F3" stroke-width="0.25" x1="21.33" y1="153.824" x2="23.306" y2="155.799"/>
</g>
<g>
	<path fill="#4188F3" stroke="#4188F3" stroke-width="0.5" stroke-miterlimit="10" d="M24.488,191.344l-4.15,4.1l-3.33,3.291
		c-0.561,0.369-1.299,0.309-1.789-0.18l-0.48-0.48l-3.52-3.561c-0.01-0.01-0.01-0.01-0.01-0.02c-0.361-0.551-0.291-1.291,0.189-1.77
		l6.141-6.141l1.139-1.131L24.488,191.344z"/>
	<g>
		<path fill="none" stroke="#4188F3" stroke-miterlimit="10" d="M19.494,192.229c-0.139,0-0.271-0.076-0.336-0.209
			c-0.057-0.113-0.051-0.24,0.004-0.344c0.154-0.584,0.664-5.865-0.846-7.902c-0.391-0.525-0.875-0.766-1.477-0.764
			c-0.283,0.006-0.502,0.115-0.691,0.342c-0.91,1.094-0.635,3.932-0.445,5.092c0.033,0.205-0.105,0.398-0.309,0.432
			c-0.205,0.035-0.381,0.307-0.414,0.104c-0.031-0.186-0.721-4.527,0.592-6.107c0.328-0.395,0.75-0.6,1.252-0.611
			c0.977-0.037,2.314,0.486,2.939,3.025c0.521,2.109,0.453,6.625-0.104,6.902C19.607,192.215,19.548,192.229,19.494,192.229z"/>
	</g>
	<path fill="#4188F3" stroke="#4188F3" stroke-miterlimit="10" d="M22.773,190.678c0.727,0.061,0.934,0.736,1.711,1.484
		c0.67,0.412,1.164,0.846,1.564,1.596c0.4,0.752,0.607,1.602,0.68,2.439c0.076,0.84,0.02,1.672-0.098,2.479l-0.008,0.055
		c-0.121,0.836-0.896,1.414-1.732,1.293c-0.834-0.121-1.412-0.896-1.291-1.732c0.025-0.18,0.086-0.354,0.166-0.504
		c0.602-1.119,1.023-2.318,0.871-3.523C24.5,193.066,23.609,191.539,22.773,190.678z"/>
</g>
<path fill="#4188F3" d="M19.715,230.33c0,1.945,0.037,2.225,1.111,2.316l0.594,0.057c0.111,0.072,0.072,0.406-0.037,0.465
	c-1.057-0.039-1.688-0.059-2.43-0.059c-0.74,0-1.391,0.02-2.576,0.059c-0.113-0.059-0.148-0.371,0-0.465l0.668-0.057
	c1.055-0.092,1.148-0.371,1.148-2.316v-8.287c0-0.572,0-0.594-0.555-0.594h-1.021c-0.795,0-1.816,0.039-2.281,0.465
	c-0.441,0.406-0.629,0.814-0.834,1.277c-0.148,0.113-0.406,0.021-0.48-0.129c0.295-0.834,0.574-2.021,0.705-2.762
	c0.055-0.037,0.297-0.057,0.352,0c0.111,0.594,0.723,0.574,1.576,0.574h7.508c1.002,0,1.168-0.037,1.445-0.518
	c0.094-0.037,0.299-0.02,0.336,0.055c-0.207,0.76-0.336,2.262-0.279,2.816c-0.074,0.15-0.389,0.15-0.482,0.037
	c-0.055-0.461-0.186-1.148-0.465-1.352c-0.424-0.316-1.131-0.465-2.148-0.465H20.25c-0.555,0-0.535,0.021-0.535,0.631V230.33z"/>
<g>
	
		<rect x="59.367" y="10.988" fill="none" stroke="#4188F3" stroke-width="0.75" stroke-miterlimit="10" width="14.637" height="14.636"/>
	<line fill="none" stroke="#4188F3" stroke-width="0.75" stroke-miterlimit="10" x1="71.473" y1="14.599" x2="71.473" y2="11.289"/>
	<line fill="none" stroke="#4188F3" stroke-width="0.75" stroke-miterlimit="10" x1="65.453" y1="14.599" x2="65.453" y2="11.289"/>
	<line fill="none" stroke="#4188F3" stroke-width="0.75" stroke-miterlimit="10" x1="62.545" y1="12.869" x2="62.545" y2="11.288"/>
	<line fill="none" stroke="#4188F3" stroke-width="0.75" stroke-miterlimit="10" x1="68.416" y1="13.696" x2="68.416" y2="11.289"/>
	<line fill="none" stroke="#4188F3" stroke-width="0.75" stroke-miterlimit="10" x1="62.273" y1="22.908" x2="59.689" y2="22.908"/>
	<line fill="none" stroke="#4188F3" stroke-width="0.75" stroke-miterlimit="10" x1="63" y1="16.889" x2="59.689" y2="16.889"/>
	<line fill="none" stroke="#4188F3" stroke-width="0.75" stroke-miterlimit="10" x1="62.097" y1="13.98" x2="59.689" y2="13.98"/>
	<line fill="none" stroke="#4188F3" stroke-width="0.75" stroke-miterlimit="10" x1="62.69" y1="19.852" x2="59.689" y2="19.852"/>
</g>
<g>
	<polyline fill="none" stroke="#4188F3" stroke-miterlimit="10" points="92,11.5 88.5,11.5 88.5,16 	"/>
	<polyline fill="none" stroke="#4188F3" stroke-miterlimit="10" points="92,25.5 88.5,25.5 88.5,21 	"/>
	<polyline fill="none" stroke="#4188F3" stroke-miterlimit="10" points="99,25.5 102.5,25.5 102.5,21 	"/>
	<polyline fill="none" stroke="#4188F3" stroke-miterlimit="10" points="99,11.5 102.5,11.5 102.5,16 	"/>
	<rect x="92" y="15" fill="#4188F3" width="7" height="7"/>
</g>
<g>
	
		<rect x="116.982" y="11.085" fill="none" stroke="#4188F3" stroke-width="0.75" stroke-miterlimit="10" width="14.637" height="14.636"/>
	<g>
		<rect x="119" y="16" fill="#4188F3" width="3" height="8"/>
		<rect x="119" y="13" fill="#4188F3" width="3" height="2"/>
		<rect x="123" y="13" fill="#4188F3" width="7" height="11"/>
	</g>
</g>
<g>
	<path fill="#4188F3" d="M141.53,112.595c16.273,0,29.955,12.385,29.955,29.667c0,17.354-13.609,29.738-29.955,29.738H124.32
		v-59.405H141.53z M139.946,159.903c10.009,0,16.85-7.633,16.921-17.569c0-9.938-6.841-17.642-16.921-17.642h-2.088v35.211H139.946z
		"/>
	<path fill="#4188F3" d="M211.442,124.476h-20.45v11.809h19.586v11.881h-19.586v11.953h20.45V172h-33.987v-59.405h33.987V124.476z"
		/>
	<path fill="#4188F3" d="M259.538,117.131l-5.472,10.8c0,0-5.905-4.104-12.025-4.104c-4.608,0-7.057,2.088-7.057,5.329
		c0,3.312,5.616,5.688,12.385,8.568c6.625,2.809,13.897,8.426,13.897,16.201c0,14.186-10.801,19.154-22.394,19.154
		c-13.897,0-22.322-7.849-22.322-7.849l6.769-11.377c0,0,7.92,6.696,14.545,6.696c2.952,0,8.569-0.288,8.569-5.832
		c0-4.32-6.337-6.265-13.394-9.793c-7.128-3.528-11.305-9.072-11.305-15.266c0-11.089,9.792-18.146,19.37-18.146
		C251.905,111.515,259.538,117.131,259.538,117.131z"/>
	<path fill="#4188F3" d="M281.136,172h-13.537v-59.405h13.537V172z"/>
	<path fill="#4188F3" d="M343.491,151.622c-3.24,15.05-15.77,21.458-27.435,21.458c-15.985,0-28.946-13.753-28.946-30.746
		c0-17.066,12.241-30.819,28.946-30.819c10.441,0,17.714,3.889,22.898,10.153l-8.857,9.721c-3.456-5.545-7.992-7.633-13.249-7.633
		c-8.353,0-15.121,8.281-15.121,18.578c0,10.08,6.769,18.289,15.121,18.289c6.48,0,12.89-4.177,12.89-11.449h-13.682v-10.441h27.435
		V151.622z"/>
	<path fill="#4188F3" d="M362.999,172h-13.537v-59.405h13.537l23.618,36.867h0.144v-36.867h13.538V172h-13.538l-23.617-36.867
		h-0.145V172z"/>
</g>
</svg>
