<?xml version="1.0" encoding="utf-8"?>
<!-- Generator: Adobe Illustrator 16.0.0, SVG Export Plug-In . SVG Version: 6.00 Build 0)  -->
<!DOCTYPE svg PUBLIC "-//W3C//DTD SVG 1.1//EN" "http://www.w3.org/Graphics/SVG/1.1/DTD/svg11.dtd">
<svg version="1.1" id="Layer_1" xmlns="http://www.w3.org/2000/svg" xmlns:xlink="http://www.w3.org/1999/xlink" x="0px" y="0px"
	 width="300px" height="300px" viewBox="0 0 300 300" enable-background="new 0 0 300 300" xml:space="preserve">
<g>
	<path fill="#F34141" d="M158.723,130.273c-8.454,0-15.679,2.864-21.473,8.505c-5.792,5.646-8.733,12.64-8.733,20.773
		c0,8.053,2.919,15.02,8.676,20.719c5.746,5.683,12.921,8.566,21.313,8.566c3.467,0,7.073-0.889,10.811-2.674
		c2.199-0.801,4.595-2.551,7.139-5.213l3.312-3.469c0,0,0,8.69,0,9.98c1.281,0,7.873,0,9.155,0c0-1.472,0-27.893,0-27.893
		c0-8.147-2.94-15.136-8.733-20.793C174.396,133.137,167.172,130.273,158.723,130.273z M173.648,174.22L173.648,174.22
		c-4.072,4.062-9.125,6.116-15.015,6.116c-6.003,0-11.08-2.054-15.098-6.121c-4.002-4.041-6.036-8.976-6.036-14.658
		c0-5.677,2.034-10.625,6.033-14.719c4.019-4.114,9.099-6.199,15.104-6.199c5.893,0,10.949,2.085,15.018,6.193
		c4.058,4.098,6.109,9.048,6.109,14.725C179.764,165.239,177.705,170.174,173.648,174.22z"/>
	<path fill="#F34141" d="M70.715,130.252c-8.644,0-15.965,3.009-21.769,8.939c-5.825,5.951-8.771,13.188-8.771,21.517
		c0,8.31,3.209,15.293,9.54,20.769c5.865,5.135,13.166,7.765,21.66,7.928c0-1.295,0-6.945,0-8.065
		c-5.676-0.165-10.574-1.938-14.528-5.388c-4.162-3.635-6.425-8.402-6.734-14.18l-0.041-0.826c0,0,48.368,0,50.074,0
		c-0.152-8.432-2.686-15.595-7.625-21.252C87.062,133.426,79.721,130.252,70.715,130.252z M51.895,152.48l0.338-1.021
		c2.781-8.459,8.999-12.748,18.481-12.748c4.203,0,8.159,1.166,11.752,3.468c3.626,2.322,5.99,5.46,7.035,9.32l0.263,0.981H51.895
		L51.895,152.48z"/>
	<path fill="#F34141" d="M228.954,130.273c-8.757,0-16.226,2.854-22.216,8.474c-5.984,5.621-9.018,12.649-9.018,20.908
		c0,8.252,3.055,15.288,9.081,20.907c6.033,5.621,13.484,8.471,22.15,8.471c8.653,0,16.103-2.85,22.134-8.471
		c6.025-5.625,9.088-12.655,9.088-20.907c0-8.259-3.038-15.287-9.018-20.908C245.168,133.127,237.693,130.273,228.954,130.273z
		 M244.596,174.256c-4.246,3.995-9.474,6.02-15.533,6.02c-6.069,0-11.297-2.022-15.543-6.02c-4.256-3.994-6.406-8.955-6.406-14.729
		c0-5.775,2.15-10.746,6.396-14.792c4.258-4.041,9.488-6.095,15.555-6.095c6.061,0,11.287,2.054,15.543,6.095
		c4.246,4.046,6.4,9.017,6.4,14.792C251.007,165.301,248.852,170.262,244.596,174.256z"/>
	<path fill="#F34141" d="M114.419,189.033c1.362,0,2.473-0.436,3.406-1.316c0.938-0.888,1.392-1.941,1.392-3.236
		c0,0,0-71.554,0-73.077c-1.297,0-8.305,0-9.597,0c0,1.522,0,73.077,0,73.077c0,1.295,0.453,2.358,1.381,3.236
		C111.937,188.6,113.055,189.033,114.419,189.033z"/>
	<path fill="#F34141" d="M103.155,118.986l-11.129,13.908l-7.436-5.408l11.313-14.137c0,0,2.012-2.199,5.399,0.263
		C104.69,116.075,103.683,118.284,103.155,118.986z"/>
</g>
<g>
	<path fill="#F34141" d="M165.969,233.512v3.937h-3.387v-37.652h3.387v18.377h0.1c0.996-1.524,2.291-2.68,3.886-3.461
		c1.594-0.778,3.237-1.17,4.931-1.17c1.825,0,3.479,0.315,4.955,0.944c1.479,0.634,2.739,1.494,3.785,2.591
		c1.046,1.096,1.859,2.391,2.439,3.885c0.582,1.494,0.873,3.104,0.873,4.832s-0.291,3.336-0.873,4.83
		c-0.58,1.494-1.395,2.789-2.439,3.885c-1.045,1.097-2.309,1.961-3.785,2.591c-1.479,0.631-3.13,0.946-4.955,0.946
		c-1.693,0-3.337-0.383-4.931-1.146c-1.595-0.764-2.89-1.894-3.886-3.387h-0.1V233.512z M183.352,225.793
		c0-1.295-0.199-2.516-0.599-3.66c-0.397-1.146-0.972-2.143-1.719-2.988c-0.747-0.848-1.668-1.52-2.765-2.018
		c-1.096-0.498-2.34-0.748-3.734-0.748c-1.295,0-2.49,0.242-3.586,0.723c-1.096,0.482-2.042,1.146-2.84,1.992
		c-0.797,0.848-1.42,1.844-1.867,2.988c-0.448,1.146-0.672,2.383-0.672,3.711s0.224,2.564,0.672,3.711
		c0.447,1.145,1.07,2.133,1.867,2.963c0.798,0.83,1.744,1.486,2.84,1.967c1.096,0.482,2.291,0.724,3.586,0.724
		c1.395,0,2.64-0.24,3.734-0.724c1.097-0.479,2.018-1.145,2.765-1.992c0.747-0.846,1.319-1.842,1.719-2.987
		C183.15,228.309,183.352,227.088,183.352,225.793z"/>
	<path fill="#F34141" d="M197.693,237.447h-3.387v-37.652h3.387V237.447z"/>
	<path fill="#F34141" d="M229.917,225.793c0,1.76-0.308,3.387-0.922,4.881s-1.47,2.789-2.563,3.885
		c-1.096,1.096-2.408,1.951-3.936,2.564s-3.205,0.922-5.03,0.922c-1.793,0-3.454-0.309-4.979-0.922
		c-1.527-0.613-2.84-1.469-3.936-2.564c-1.096-1.095-1.951-2.391-2.564-3.885c-0.614-1.494-0.922-3.121-0.922-4.881
		s0.308-3.387,0.922-4.881c0.613-1.494,1.47-2.789,2.564-3.885c1.096-1.096,2.407-1.951,3.936-2.564
		c1.525-0.615,3.188-0.922,4.979-0.922c1.825,0,3.503,0.307,5.03,0.922c1.525,0.613,2.839,1.469,3.936,2.564
		c1.096,1.095,1.949,2.391,2.563,3.885S229.917,224.033,229.917,225.793z M226.331,225.793c0-1.295-0.208-2.516-0.623-3.66
		c-0.415-1.146-1.005-2.143-1.769-2.988c-0.765-0.848-1.692-1.52-2.789-2.018c-1.096-0.498-2.323-0.748-3.686-0.748
		c-1.361,0-2.582,0.25-3.66,0.748c-1.08,0.498-2,1.17-2.765,2.018c-0.765,0.847-1.354,1.842-1.769,2.988
		c-0.416,1.145-0.623,2.365-0.623,3.66s0.207,2.516,0.623,3.66c0.414,1.146,1.004,2.143,1.769,2.988
		c0.765,0.848,1.685,1.512,2.765,1.992c1.078,0.481,2.299,0.723,3.66,0.723s2.59-0.24,3.686-0.723
		c1.097-0.48,2.024-1.146,2.789-1.992c0.764-0.846,1.354-1.842,1.769-2.988C226.123,228.309,226.331,227.088,226.331,225.793z"/>
	<path fill="#F34141" d="M238.434,242.129c0.928,1.195,2.198,2.207,3.81,3.037c1.61,0.83,3.312,1.246,5.104,1.246
		c1.66,0,3.07-0.242,4.233-0.723c1.162-0.482,2.101-1.14,2.813-1.967c0.713-0.83,1.235-1.804,1.568-2.914
		c0.331-1.113,0.498-2.3,0.498-3.562v-4.383h-0.1c-0.896,1.461-2.168,2.59-3.812,3.387s-3.312,1.194-5.005,1.194
		c-1.826,0-3.479-0.299-4.956-0.896s-2.739-1.42-3.784-2.465c-1.047-1.047-1.859-2.299-2.441-3.762
		c-0.58-1.462-0.87-3.037-0.87-4.73c0-1.659,0.29-3.221,0.87-4.682c0.582-1.461,1.396-2.74,2.441-3.836
		c1.045-1.097,2.307-1.957,3.784-2.591c1.478-0.629,3.13-0.944,4.956-0.944c1.693,0,3.354,0.397,4.98,1.194
		c1.625,0.798,2.904,1.941,3.834,3.437h0.101v-4.032h3.388v23.108c0,1.262-0.176,2.604-0.523,4.033
		c-0.348,1.428-0.996,2.739-1.942,3.936s-2.233,2.191-3.858,2.988c-1.627,0.797-3.735,1.194-6.325,1.194
		c-2.159,0-4.218-0.416-6.177-1.246c-1.959-0.829-3.635-1.975-5.029-3.436L238.434,242.129z M239.08,225.494
		c0,1.229,0.199,2.391,0.598,3.486c0.399,1.095,0.971,2.059,1.719,2.889c0.746,0.83,1.668,1.486,2.765,1.967
		c1.096,0.482,2.341,0.723,3.735,0.723c1.295,0,2.49-0.217,3.586-0.647s2.041-1.045,2.838-1.843c0.798-0.797,1.42-1.752,1.867-2.862
		c0.449-1.113,0.674-2.351,0.674-3.711c0-1.229-0.225-2.392-0.674-3.486c-0.447-1.095-1.069-2.059-1.867-2.889
		c-0.797-0.83-1.742-1.494-2.838-1.992s-2.291-0.748-3.586-0.748c-1.396,0-2.641,0.25-3.735,0.748s-2.019,1.162-2.765,1.992
		c-0.748,0.83-1.319,1.793-1.719,2.889C239.279,223.105,239.08,224.266,239.08,225.494z"/>
</g>
</svg>
