<?xml version="1.0" encoding="utf-8"?>
<!-- Generator: Adobe Illustrator 16.0.0, SVG Export Plug-In . SVG Version: 6.00 Build 0)  -->
<!DOCTYPE svg PUBLIC "-//W3C//DTD SVG 1.1//EN" "http://www.w3.org/Graphics/SVG/1.1/DTD/svg11.dtd">
<svg version="1.1" id="Layer_1" xmlns="http://www.w3.org/2000/svg" xmlns:xlink="http://www.w3.org/1999/xlink" x="0px" y="0px"
	 width="300px" height="300px" viewBox="0 0 300 300" enable-background="new 0 0 300 300" xml:space="preserve">
<path fill="#F34141" d="M158.771,128.631c-8.421,0-15.618,2.993-21.391,8.895c-5.774,5.905-8.704,13.215-8.704,21.725
	c0,8.419,2.909,15.703,8.646,21.659c5.726,5.945,12.872,8.96,21.238,8.96c3.449,0,7.044-0.929,10.767-2.794
	c2.193-0.84,4.584-2.668,7.125-5.454l3.29-3.623v10.438h9.124v-29.171c0-8.515-2.928-15.829-8.705-21.737
	C174.391,131.625,167.195,128.631,158.771,128.631z M173.649,174.589L173.649,174.589c-4.054,4.243-9.091,6.394-14.964,6.394
	c-5.976,0-11.037-2.153-15.042-6.398c-3.991-4.229-6.015-9.387-6.015-15.329c0-5.937,2.022-11.117,6.012-15.397
	c4.004-4.298,9.065-6.478,15.045-6.478c5.878,0,10.914,2.178,14.968,6.474c4.042,4.284,6.089,9.465,6.089,15.401
	C179.742,165.195,177.692,170.354,173.649,174.589L173.649,174.589z M71.071,128.608c-8.609,0-15.909,3.146-21.691,9.349
	c-5.801,6.219-8.741,13.791-8.741,22.501c0,8.687,3.199,15.992,9.508,21.719c5.843,5.365,13.119,8.114,21.583,8.29v-8.436
	c-5.655-0.174-10.538-2.033-14.476-5.641c-4.146-3.796-6.403-8.784-6.709-14.824l-0.043-0.864h49.902
	c-0.154-8.814-2.675-16.307-7.599-22.224C87.361,131.93,80.05,128.608,71.071,128.608z M52.321,151.856l0.337-1.069
	c2.772-8.845,8.967-13.333,18.414-13.333c4.192,0,8.133,1.222,11.716,3.628c3.611,2.428,5.967,5.708,7.006,9.746l0.264,1.028H52.321
	z M228.76,128.631c-8.723,0-16.172,2.982-22.139,8.862c-5.96,5.872-8.982,13.227-8.982,21.859s3.045,15.986,9.055,21.86
	c6.013,5.881,13.438,8.86,22.066,8.86c8.624,0,16.047-2.979,22.061-8.86c6.008-5.878,9.057-13.231,9.057-21.86
	c0-8.63-3.023-15.984-8.986-21.859C244.921,131.614,237.477,128.631,228.76,128.631z M244.354,174.623
	c-4.234,4.179-9.443,6.295-15.486,6.295c-6.047,0-11.257-2.116-15.488-6.295c-4.238-4.177-6.385-9.36-6.385-15.4
	c0-6.036,2.146-11.241,6.381-15.469c4.234-4.229,9.447-6.374,15.492-6.374c6.043,0,11.252,2.145,15.489,6.374
	c4.231,4.228,6.381,9.433,6.381,15.469C250.738,165.263,248.589,170.446,244.354,174.623z M111.222,188.699
	c-0.926-0.922-1.378-2.028-1.378-3.382v-76.42h9.563v76.42c0,1.352-0.452,2.457-1.383,3.382c-0.932,0.926-2.041,1.375-3.398,1.375
	C113.265,190.074,112.152,189.624,111.222,188.699L111.222,188.699z M103.404,116.827l-11.095,14.543l-7.409-5.651l11.277-14.785
	c0,0,2.002-2.295,5.377,0.279C104.93,113.787,103.93,116.09,103.404,116.827z"/>
<g>
	<path fill="#F34141" d="M165.969,233.512v3.938h-3.387v-37.652h3.387v18.377h0.1c0.996-1.523,2.291-2.68,3.887-3.461
		c1.594-0.777,3.236-1.17,4.932-1.17c1.824,0,3.479,0.314,4.954,0.943c1.479,0.635,2.739,1.494,3.785,2.592
		c1.046,1.096,1.858,2.391,2.438,3.885c0.582,1.494,0.873,3.104,0.873,4.832s-0.291,3.336-0.873,4.83
		c-0.58,1.494-1.395,2.789-2.438,3.885c-1.045,1.098-2.31,1.961-3.785,2.592c-1.479,0.631-3.13,0.945-4.954,0.945
		c-1.693,0-3.338-0.383-4.932-1.146c-1.596-0.764-2.891-1.894-3.887-3.387h-0.1V233.512z M183.352,225.793
		c0-1.295-0.199-2.516-0.599-3.66c-0.397-1.146-0.972-2.143-1.719-2.988c-0.747-0.848-1.668-1.52-2.765-2.018
		s-2.34-0.748-3.734-0.748c-1.295,0-2.49,0.242-3.586,0.723c-1.096,0.482-2.042,1.146-2.84,1.992
		c-0.797,0.848-1.42,1.844-1.867,2.988c-0.448,1.146-0.672,2.383-0.672,3.711s0.224,2.564,0.672,3.711
		c0.447,1.145,1.07,2.133,1.867,2.963c0.798,0.83,1.744,1.486,2.84,1.967c1.096,0.482,2.291,0.725,3.586,0.725
		c1.395,0,2.64-0.24,3.734-0.725c1.097-0.479,2.018-1.145,2.765-1.992c0.747-0.846,1.319-1.842,1.719-2.986
		C183.15,228.309,183.352,227.088,183.352,225.793z"/>
	<path fill="#F34141" d="M197.693,237.447h-3.387v-37.652h3.387V237.447z"/>
	<path fill="#F34141" d="M229.917,225.793c0,1.76-0.308,3.387-0.922,4.881s-1.47,2.789-2.563,3.885
		c-1.096,1.096-2.408,1.951-3.936,2.564c-1.528,0.613-3.205,0.922-5.03,0.922c-1.793,0-3.454-0.309-4.979-0.922
		c-1.526-0.613-2.84-1.469-3.936-2.564c-1.096-1.095-1.951-2.391-2.564-3.885s-0.922-3.121-0.922-4.881s0.309-3.387,0.922-4.881
		s1.471-2.789,2.564-3.885c1.096-1.096,2.407-1.951,3.936-2.564c1.525-0.615,3.188-0.922,4.979-0.922
		c1.825,0,3.503,0.307,5.03,0.922c1.525,0.613,2.839,1.469,3.936,2.564c1.096,1.095,1.949,2.391,2.563,3.885
		S229.917,224.033,229.917,225.793z M226.331,225.793c0-1.295-0.208-2.516-0.623-3.66c-0.415-1.146-1.005-2.143-1.769-2.988
		c-0.766-0.848-1.692-1.52-2.789-2.018c-1.096-0.498-2.323-0.748-3.687-0.748c-1.36,0-2.582,0.25-3.659,0.748
		c-1.08,0.498-2,1.17-2.766,2.018s-1.354,1.842-1.77,2.988c-0.416,1.145-0.623,2.365-0.623,3.66s0.207,2.516,0.623,3.66
		c0.414,1.146,1.004,2.143,1.77,2.988c0.766,0.848,1.686,1.512,2.766,1.992c1.077,0.48,2.299,0.723,3.659,0.723
		c1.361,0,2.591-0.24,3.687-0.723c1.097-0.48,2.023-1.146,2.789-1.992c0.764-0.846,1.354-1.842,1.769-2.988
		C226.123,228.309,226.331,227.088,226.331,225.793z"/>
	<path fill="#F34141" d="M238.434,242.129c0.928,1.195,2.198,2.207,3.811,3.037c1.609,0.83,3.312,1.246,5.104,1.246
		c1.66,0,3.07-0.242,4.233-0.723c1.162-0.482,2.101-1.141,2.813-1.967c0.713-0.83,1.234-1.805,1.567-2.914
		c0.331-1.113,0.498-2.301,0.498-3.562v-4.383h-0.101c-0.896,1.461-2.168,2.59-3.812,3.387s-3.312,1.193-5.005,1.193
		c-1.826,0-3.479-0.299-4.956-0.896s-2.739-1.42-3.784-2.465c-1.047-1.047-1.859-2.299-2.441-3.762
		c-0.579-1.462-0.869-3.037-0.869-4.73c0-1.659,0.29-3.221,0.869-4.682c0.582-1.461,1.396-2.74,2.441-3.836
		c1.045-1.097,2.307-1.957,3.784-2.591c1.478-0.629,3.13-0.944,4.956-0.944c1.693,0,3.354,0.397,4.98,1.194
		c1.625,0.798,2.903,1.94,3.834,3.437h0.101v-4.032h3.388v23.108c0,1.262-0.176,2.604-0.522,4.032
		c-0.349,1.429-0.996,2.74-1.942,3.937c-0.945,1.197-2.232,2.191-3.857,2.988c-1.627,0.797-3.735,1.194-6.325,1.194
		c-2.159,0-4.218-0.416-6.177-1.246c-1.959-0.829-3.635-1.976-5.029-3.437L238.434,242.129z M239.08,225.494
		c0,1.229,0.199,2.391,0.598,3.486c0.399,1.095,0.971,2.059,1.719,2.889c0.746,0.83,1.668,1.486,2.766,1.967
		c1.096,0.482,2.341,0.723,3.734,0.723c1.295,0,2.49-0.217,3.586-0.646c1.097-0.43,2.041-1.045,2.838-1.844
		c0.799-0.797,1.421-1.752,1.867-2.861c0.449-1.113,0.674-2.352,0.674-3.711c0-1.229-0.225-2.393-0.674-3.486
		c-0.446-1.095-1.068-2.059-1.867-2.889c-0.797-0.83-1.741-1.494-2.838-1.992c-1.096-0.498-2.291-0.748-3.586-0.748
		c-1.396,0-2.641,0.25-3.734,0.748s-2.02,1.162-2.766,1.992c-0.748,0.83-1.318,1.793-1.719,2.889
		C239.279,223.105,239.08,224.266,239.08,225.494z"/>
</g>
</svg>
