<?xml version="1.0" encoding="utf-8"?>
<!-- Generator: Adobe Illustrator 16.0.0, SVG Export Plug-In . SVG Version: 6.00 Build 0)  -->
<!DOCTYPE svg PUBLIC "-//W3C//DTD SVG 1.1//EN" "http://www.w3.org/Graphics/SVG/1.1/DTD/svg11.dtd">
<svg version="1.1" id="Layer_1" xmlns="http://www.w3.org/2000/svg" xmlns:xlink="http://www.w3.org/1999/xlink" x="0px" y="0px"
	 width="300px" height="300px" viewBox="0 0 300 300" enable-background="new 0 0 300 300" xml:space="preserve">
<rect opacity="0.95" fill="#F0F0F0" width="300" height="300"/>
<g>
	<path fill="#F34141" d="M158.723,130.273c-8.454,0-15.679,2.864-21.473,8.505c-5.792,5.646-8.733,12.64-8.733,20.773
		c0,8.053,2.919,15.02,8.676,20.719c5.746,5.682,12.921,8.566,21.313,8.566c3.467,0,7.073-0.889,10.811-2.674
		c2.199-0.801,4.594-2.551,7.138-5.213l3.312-3.469c0,0,0,8.691,0,9.981c1.282,0,7.873,0,9.156,0c0-1.472,0-27.892,0-27.892
		c0-8.148-2.941-15.137-8.734-20.794C174.396,133.137,167.172,130.273,158.723,130.273z M173.648,174.22L173.648,174.22
		c-4.072,4.062-9.125,6.116-15.014,6.116c-6.003,0-11.08-2.054-15.098-6.121c-4.002-4.041-6.036-8.976-6.036-14.658
		c0-5.677,2.034-10.625,6.033-14.719c4.019-4.114,9.099-6.199,15.103-6.199c5.893,0,10.95,2.085,15.018,6.193
		c4.058,4.098,6.109,9.048,6.109,14.725C179.764,165.239,177.705,170.174,173.648,174.22z"/>
	<path fill="#F34141" d="M70.715,130.252c-8.644,0-15.965,3.009-21.769,8.939c-5.825,5.951-8.771,13.188-8.771,21.517
		c0,8.31,3.209,15.293,9.54,20.769c5.865,5.135,13.166,7.764,21.66,7.928c0-1.295,0-6.946,0-8.066
		c-5.676-0.165-10.574-1.939-14.528-5.388c-4.162-3.634-6.425-8.402-6.734-14.179l-0.041-0.826c0,0,48.368,0,50.074,0
		c-0.152-8.432-2.686-15.596-7.625-21.253C87.062,133.426,79.721,130.252,70.715,130.252z M51.895,152.48l0.338-1.021
		c2.781-8.459,8.999-12.748,18.481-12.748c4.203,0,8.159,1.166,11.752,3.468c3.626,2.322,5.99,5.46,7.035,9.32l0.263,0.981H51.895
		L51.895,152.48z"/>
	<path fill="#F34141" d="M228.954,130.273c-8.757,0-16.226,2.854-22.216,8.474c-5.984,5.621-9.018,12.649-9.018,20.908
		c0,8.252,3.055,15.288,9.082,20.907c6.033,5.621,13.484,8.471,22.15,8.471c8.654,0,16.102-2.85,22.134-8.471
		c6.026-5.625,9.088-12.655,9.088-20.907c0-8.259-3.038-15.287-9.018-20.908C245.168,133.127,237.693,130.273,228.954,130.273z
		 M244.596,174.256c-4.246,3.995-9.474,6.02-15.533,6.02c-6.07,0-11.297-2.023-15.543-6.02c-4.256-3.994-6.406-8.955-6.406-14.729
		c0-5.775,2.15-10.746,6.396-14.792c4.257-4.041,9.488-6.095,15.554-6.095c6.061,0,11.287,2.054,15.543,6.095
		c4.246,4.046,6.401,9.017,6.401,14.792C251.007,165.301,248.852,170.262,244.596,174.256z"/>
	<path fill="#F34141" d="M114.419,189.033c1.362,0,2.473-0.436,3.406-1.316c0.938-0.888,1.392-1.941,1.392-3.236
		c0,0,0-71.554,0-73.077c-1.297,0-8.305,0-9.597,0c0,1.522,0,73.077,0,73.077c0,1.295,0.453,2.358,1.381,3.236
		C111.937,188.6,113.055,189.033,114.419,189.033z"/>
	<path fill="#F34141" d="M103.155,118.986l-11.129,13.908l-7.436-5.408l11.313-14.137c0,0,2.012-2.199,5.399,0.263
		C104.69,116.075,103.683,118.284,103.155,118.986z"/>
</g>
<g>
	<path fill="#F34141" d="M165.969,233.512v3.936h-3.387v-37.652h3.387v18.377h0.1c0.996-1.525,2.291-2.68,3.885-3.461
		c1.594-0.779,3.237-1.17,4.931-1.17c1.825,0,3.478,0.316,4.955,0.945c1.478,0.633,2.739,1.494,3.785,2.59s1.859,2.391,2.44,3.885
		s0.872,3.105,0.872,4.832s-0.291,3.336-0.872,4.83s-1.395,2.789-2.44,3.885s-2.308,1.961-3.785,2.59
		c-1.478,0.631-3.13,0.947-4.955,0.947c-1.693,0-3.337-0.383-4.931-1.146s-2.889-1.893-3.885-3.387H165.969z M183.351,225.793
		c0-1.295-0.199-2.516-0.598-3.66c-0.398-1.146-0.972-2.143-1.719-2.988c-0.747-0.848-1.668-1.52-2.764-2.018
		s-2.341-0.748-3.735-0.748c-1.295,0-2.49,0.242-3.586,0.723c-1.096,0.482-2.042,1.146-2.839,1.992
		c-0.797,0.848-1.42,1.844-1.868,2.988c-0.448,1.146-0.672,2.383-0.672,3.711s0.224,2.564,0.672,3.711
		c0.448,1.145,1.071,2.133,1.868,2.963s1.743,1.486,2.839,1.967c1.096,0.482,2.291,0.723,3.586,0.723c1.395,0,2.64-0.24,3.735-0.723
		c1.096-0.48,2.017-1.145,2.764-1.992c0.747-0.846,1.32-1.842,1.719-2.988C183.151,228.309,183.351,227.088,183.351,225.793z"/>
	<path fill="#F34141" d="M197.693,237.447h-3.387v-37.652h3.387V237.447z"/>
	<path fill="#F34141" d="M229.917,225.793c0,1.76-0.308,3.387-0.922,4.881s-1.469,2.789-2.564,3.885s-2.408,1.951-3.935,2.564
		c-1.527,0.613-3.205,0.922-5.03,0.922c-1.793,0-3.454-0.309-4.98-0.922c-1.527-0.613-2.839-1.469-3.935-2.564
		s-1.951-2.391-2.565-3.885s-0.921-3.121-0.921-4.881s0.307-3.387,0.921-4.881s1.47-2.789,2.565-3.885s2.407-1.951,3.935-2.564
		c1.526-0.615,3.188-0.922,4.98-0.922c1.825,0,3.503,0.307,5.03,0.922c1.526,0.613,2.839,1.469,3.935,2.564s1.95,2.391,2.564,3.885
		S229.917,224.033,229.917,225.793z M226.331,225.793c0-1.295-0.208-2.516-0.623-3.66c-0.415-1.146-1.005-2.143-1.768-2.988
		c-0.765-0.848-1.693-1.52-2.789-2.018s-2.324-0.748-3.686-0.748c-1.362,0-2.582,0.25-3.661,0.748s-2,1.17-2.764,2.018
		c-0.765,0.846-1.354,1.842-1.769,2.988c-0.415,1.145-0.622,2.365-0.622,3.66s0.207,2.516,0.622,3.66
		c0.415,1.146,1.004,2.143,1.769,2.988c0.764,0.848,1.685,1.512,2.764,1.992c1.079,0.482,2.299,0.723,3.661,0.723
		c1.361,0,2.59-0.24,3.686-0.723c1.096-0.48,2.024-1.145,2.789-1.992c0.763-0.846,1.353-1.842,1.768-2.988
		C226.123,228.309,226.331,227.088,226.331,225.793z"/>
	<path fill="#F34141" d="M238.433,242.129c0.929,1.195,2.199,2.207,3.81,3.037s3.312,1.246,5.105,1.246
		c1.66,0,3.07-0.242,4.233-0.723c1.162-0.482,2.1-1.139,2.813-1.967c0.714-0.83,1.236-1.803,1.569-2.914
		c0.331-1.113,0.498-2.299,0.498-3.561v-4.383h-0.1c-0.896,1.461-2.167,2.59-3.811,3.387s-3.312,1.195-5.005,1.195
		c-1.826,0-3.479-0.299-4.956-0.896s-2.739-1.42-3.785-2.465c-1.046-1.047-1.859-2.299-2.44-3.762
		c-0.581-1.461-0.871-3.037-0.871-4.73c0-1.66,0.29-3.221,0.871-4.682s1.395-2.74,2.44-3.836s2.308-1.957,3.785-2.59
		c1.478-0.629,3.13-0.945,4.956-0.945c1.693,0,3.354,0.398,4.98,1.195c1.626,0.797,2.904,1.941,3.835,3.436h0.1v-4.033h3.387v23.109
		c0,1.262-0.175,2.605-0.523,4.033s-0.996,2.74-1.942,3.936s-2.233,2.191-3.859,2.988c-1.627,0.797-3.735,1.195-6.325,1.195
		c-2.159,0-4.217-0.416-6.176-1.246c-1.96-0.83-3.636-1.975-5.03-3.436L238.433,242.129z M239.08,225.494
		c0,1.229,0.199,2.391,0.598,3.486s0.971,2.059,1.718,2.889s1.669,1.486,2.765,1.967c1.096,0.482,2.341,0.723,3.735,0.723
		c1.295,0,2.49-0.217,3.586-0.648c1.096-0.43,2.042-1.045,2.839-1.842s1.419-1.752,1.867-2.863c0.448-1.113,0.673-2.35,0.673-3.711
		c0-1.229-0.225-2.391-0.673-3.486s-1.07-2.059-1.867-2.889s-1.743-1.494-2.839-1.992s-2.291-0.748-3.586-0.748
		c-1.395,0-2.64,0.25-3.735,0.748s-2.018,1.162-2.765,1.992s-1.319,1.793-1.718,2.889S239.08,224.266,239.08,225.494z"/>
</g>
</svg>
