<?xml version="1.0" encoding="utf-8"?>
<!-- Generator: Adobe Illustrator 16.0.0, SVG Export Plug-In . SVG Version: 6.00 Build 0)  -->
<!DOCTYPE svg PUBLIC "-//W3C//DTD SVG 1.1//EN" "http://www.w3.org/Graphics/SVG/1.1/DTD/svg11.dtd">
<svg version="1.1" id="Layer_1" xmlns="http://www.w3.org/2000/svg" xmlns:xlink="http://www.w3.org/1999/xlink" x="0px" y="0px"
	 width="89.5px" height="177px" viewBox="0 0 89.5 177" enable-background="new 0 0 89.5 177" xml:space="preserve">
<path d="M297.432,334.188"/>
<path d="M297.432,334.188"/>
<path d="M297.432,334.188"/>
<path d="M297.432,334.188"/>
<path d="M297.432,334.188"/>
<path d="M297.432,334.188"/>
<path d="M297.432,334.188"/>
<path d="M297.432,334.188"/>
<path fill="#F0F0F0" d="M64.133,133.167c1.387-0.505,2.018-1.765,2.018-3.276V42.668c0-1.386-0.631-2.647-2.018-3.277
	c-1.386-0.503-2.773-0.125-3.654,0.882l-40.083,43.61c-0.63,0.631-0.882,1.513-0.882,2.395c0,0.882,0.378,1.639,0.882,2.395
	l39.956,43.61C61.359,133.418,62.747,133.67,64.133,133.167z"/>
</svg>
